<?xml version="1.0" encoding="UTF-8" standalone="no"?>
<svg
   xmlns:dc="http://purl.org/dc/elements/1.1/"
   xmlns:cc="http://creativecommons.org/ns#"
   xmlns:rdf="http://www.w3.org/1999/02/22-rdf-syntax-ns#"
   xmlns:svg="http://www.w3.org/2000/svg"
   xmlns="http://www.w3.org/2000/svg"
   xmlns:sodipodi="http://sodipodi.sourceforge.net/DTD/sodipodi-0.dtd"
   xmlns:inkscape="http://www.inkscape.org/namespaces/inkscape"
   inkscape:version="1.0 (4035a4f, 2020-05-01)"
   height="183.85536"
   width="231.41699"
   sodipodi:docname="cakemama.svg"
   xml:space="preserve"
   viewBox="0 0 231.41698 183.85536"
   y="0px"
   x="0px"
   id="Capa_1"
   version="1.1"><metadata
   id="metadata122"><rdf:RDF><cc:Work
       rdf:about=""><dc:format>image/svg+xml</dc:format><dc:type
         rdf:resource="http://purl.org/dc/dcmitype/StillImage" /><dc:title></dc:title></cc:Work></rdf:RDF></metadata><defs
   id="defs120" /><sodipodi:namedview
   inkscape:current-layer="Capa_1"
   inkscape:window-maximized="0"
   inkscape:window-y="0"
   inkscape:window-x="0"
   inkscape:cy="110.48733"
   inkscape:cx="46.701103"
   inkscape:zoom="2.1544623"
   showgrid="false"
   id="namedview118"
   inkscape:window-height="900"
   inkscape:window-width="1440"
   inkscape:pageshadow="2"
   inkscape:pageopacity="0"
   guidetolerance="10"
   gridtolerance="10"
   objecttolerance="10"
   borderopacity="1"
   bordercolor="#666666"
   pagecolor="#e9afaf" />
<path
   style="fill:#ffffff"
   sodipodi:nodetypes="ssssccccccsccccccscssccccccccsscscccssssccccsccscscsccccsccscccccccccscssccccccsscccccccsssssss"
   id="path85"
   d="m 193.93524,183.55499 h -0.247 c -1.419,0 -28.87186,1.97734 -35.21386,-4.21466 -4.225,-4.125 -6.366,-9.875 -6.366,-17.09 0,-16.46 28.9688,-58.83131 35.1078,-66.943315 l -15.682,-0.1 c -1.155,0.632 -3.665,1.805 -7.568,2.618 -1.996,0.416 -4.486,0.551 -7.932,0.738 -5.817,0.315 -14.608,0.792 -28.82,2.988005 -7.466,1.154 -12.261,2.537 -16.898,3.876 -9.28,2.678 -18.045995,5.207 -45.415995,5.207 -17.478,0 -29.645,-4.511 -37.923,-9.85 l -23.7250001,7.471 c -1.32,0.411 -2.72100001,-0.316 -3.13600001,-1.634 -0.415,-1.317 0.317,-2.721 1.63400001,-3.136 L 21.984185,97.114015 c -7.762,-6.49 -10.602,-12.986 -10.829,-13.527 -0.303,-0.724 -0.25,-1.547 0.145,-2.225 0.395,-0.678 1.084,-1.131 1.863,-1.225 0.052,-0.006 5.296,-0.632 15.902,-1.652 v 0 c 4.426,-0.426 24.667388,1.63768 25.100388,-16.539318 0.229,-9.621 -4.147764,-8.634776 -8.242764,-14.067776 -2.808,-3.726 -6.303,-8.362 -10.292,-16.673 -10.114,-21.071 -7.423153,-29.0371526 -7.031153,-29.8231526 0.313,-0.62399998 0.872,-1.08999998 1.542,-1.28399998 0.672,-0.193 1.393,-0.0979999965 1.99,0.265 L 95.430809,38.908921 c 3.861,2.34 6.226991,6.6 6.174991,11.117 -0.052,4.387 2.20777,8.384776 2.20777,20.210774 0,20.743 8.43561,17.90832 22.40061,17.90832 8.14,0 13.184,-3.818 18.062,-7.512 3.983,-3.015 7.745,-5.862 12.596,-5.862 8.442,0 12.549,5.007 14.001,7.334 l 17.598,4.426 -4.201,-12.457 c -0.257,-0.763 -0.132,-1.603 0.338,-2.257 0.47,-0.654 1.226,-1.042 2.031,-1.042 h 12.712 c 0.805,0 1.561,0.388 2.031,1.042 0.47,0.654 0.595,1.494 0.338,2.257 l -4.909,14.555 7.377,1.855 c 1.227,0.309 2.03,1.485 1.87,2.74 -0.159,1.249 -1.222,2.185 -2.48,2.185 h -0.016 l -4.733,-0.03 c 6.15,8.143005 32.5878,50.088755 32.5878,66.498755 0,7.215 -2.142,12.965 -6.366,17.09 -6.341,6.192 -29.69574,4.58722 -31.11574,4.58722 z m -0.93906,-87.510975 c -4.963,6.239005 -35.8878,49.653315 -35.8878,66.207315 0,5.817 1.635,10.363 4.859,13.512 5.277,5.153 31.70786,2.78066 31.78486,2.79266 0.04,-0.002 0.079,-0.002 0.119,0 0.069,0.009 22.48574,1.94378 27.71674,-3.19522 3.205,-3.147 4.829,-7.684 4.829,-13.482 0,-16.578 -28.4558,-59.59975 -33.4208,-65.834755 z m -163.706995,0.284 c 7.57,4.980005 18.944,9.308005 35.61,9.308005 26.663,0 35.099,-2.435 44.029995,-5.012 4.788,-1.381005 9.739,-2.810005 17.521,-4.013005 14.457,-2.233 23.397,-2.719 29.313,-3.04 3.227,-0.175 5.558,-0.302 7.183,-0.64 4.314,-0.899 6.524,-2.304 6.545,-2.317 0.409,-0.265 0.893,-0.376 1.387,-0.41 l 11.992,0.075 -14.264,-3.587 c -0.748,-0.188 -1.366,-0.711 -1.677,-1.416 -0.096,-0.205 -2.637,-5.504 -10.058,-5.504 -3.172,0 -5.999,2.14 -9.578,4.85 -5.018,3.798 -11.261,8.524 -21.08,8.524 -16.942,0 -27.400607,0.77268 -27.400607,-22.90832 0,-11.850998 -2.258764,-15.869774 -2.207764,-20.268774 0.032,-2.756 -1.411,-5.355 -3.767,-6.783 L 32.825656,6.6317684 c 0.102,3.5389996 1.759153,10.8471526 7.311153,22.4111526 3.774,7.862 7.103,12.278 9.777,15.827 4.335,5.751 9.519764,5.836776 9.249764,17.196776 -0.414,17.367998 -15.358388,20.026318 -29.621388,21.396318 v 0 c -5.449,0.524 -9.469,0.943 -12.089,1.227 1.799,2.78 5.184,7.037 10.873,10.987 0.366,0.139 0.697,0.361 0.963,0.651 z m 160.830995,-20.552 2.875,8.522 2.875,-8.522 z m -30.551,11.238 h -0.667 c -1.381,0 -2.5,-1.119 -2.5,-2.5 0,-1.381 1.119,-2.5 2.5,-2.5 h 0.667 c 1.381,0 2.5,1.119 2.5,2.5 0,1.381 -1.119,2.5 -2.5,2.5 z" />
<g
   style="fill:#ffffff"
   transform="translate(1.8489372e-4,-31.995985)"
   id="g87">
</g>
<g
   style="fill:#ffffff"
   transform="translate(1.8489372e-4,-31.995985)"
   id="g89">
</g>
<g
   style="fill:#ffffff"
   transform="translate(1.8489372e-4,-31.995985)"
   id="g91">
</g>
<g
   style="fill:#ffffff"
   transform="translate(1.8489372e-4,-31.995985)"
   id="g93">
</g>
<g
   style="fill:#ffffff"
   transform="translate(1.8489372e-4,-31.995985)"
   id="g95">
</g>
<g
   style="fill:#ffffff"
   transform="translate(1.8489372e-4,-31.995985)"
   id="g97">
</g>
<g
   style="fill:#ffffff"
   transform="translate(1.8489372e-4,-31.995985)"
   id="g99">
</g>
<g
   style="fill:#ffffff"
   transform="translate(1.8489372e-4,-31.995985)"
   id="g101">
</g>
<g
   style="fill:#ffffff"
   transform="translate(1.8489372e-4,-31.995985)"
   id="g103">
</g>
<g
   style="fill:#ffffff"
   transform="translate(1.8489372e-4,-31.995985)"
   id="g105">
</g>
<g
   style="fill:#ffffff"
   transform="translate(1.8489372e-4,-31.995985)"
   id="g107">
</g>
<g
   style="fill:#ffffff"
   transform="translate(1.8489372e-4,-31.995985)"
   id="g109">
</g>
<g
   style="fill:#ffffff"
   transform="translate(1.8489372e-4,-31.995985)"
   id="g111">
</g>
<g
   style="fill:#ffffff"
   transform="translate(1.8489372e-4,-31.995985)"
   id="g113">
</g>
<g
   style="fill:#ffffff"
   transform="translate(1.8489372e-4,-31.995985)"
   id="g115">
</g>
<g
   style="fill:#ffffff"
   transform="matrix(0.11940793,0,0,0.11845304,161.5302,114.61663)"
   id="g254"><path
     style="fill:#ffffff"
     d="m 459.38712,242.45065 h -32.5 v -66.234 c 9.29,-3.138 16,-11.93 16,-22.266 0,-10.369 -13.264,-30.377 -17.329,-36.263 -1.4,-2.027 -3.707,-3.237 -6.171,-3.237 -2.464,0 -4.771,1.21 -6.171,3.237 -4.065,5.886 -17.329,25.894 -17.329,36.263 0,10.336 6.71,19.128 16,22.266 v 66.234 h -49 v -66.234 c 9.29,-3.138 16,-11.93 16,-22.266 0,-10.369 -13.264,-30.377 -17.329,-36.263 -1.4,-2.027 -3.707,-3.237 -6.171,-3.237 -2.464,0 -4.771,1.21 -6.171,3.237 -4.065,5.886 -17.329,25.894 -17.329,36.263 0,10.336 6.71,19.128 16,22.266 v 66.234 h -49 v -66.234 c 9.29,-3.138 16,-11.93 16,-22.266 0,-10.369 -13.264,-30.377 -17.329,-36.263 -1.4,-2.027 -3.707,-3.237 -6.171,-3.237 -2.464,0 -4.771,1.21 -6.171,3.237 -4.065,5.886 -17.329,25.894 -17.329,36.263 0,10.336 6.71,19.128 16,22.266 v 66.234 h -49 v -66.234 c 9.29,-3.138 16,-11.93 16,-22.266 0,-10.369 -13.264,-30.377 -17.329,-36.263 -1.4,-2.027 -3.707,-3.237 -6.171,-3.237 -2.464,0 -4.771,1.21 -6.171,3.237 -4.065,5.886 -17.329,25.894 -17.329,36.263 0,10.336 6.71,19.128 16,22.266 v 66.234 h -49 v -66.234 c 9.29,-3.138 16,-11.93 16,-22.266 0,-10.369 -13.264,-30.377 -17.329,-36.263 -1.4,-2.027 -3.707,-3.237 -6.171,-3.237 -2.464,0 -4.771,1.21 -6.171,3.237 -4.065,5.886 -17.329,25.894 -17.329,36.263 0,10.336 6.71,19.128 16,22.266 v 66.234 h -49 v -66.234 c 9.29,-3.138 16,-11.93 16,-22.266 0,-10.369 -13.264,-30.377 -17.329,-36.263 -1.4,-2.027 -3.707,-3.237 -6.171,-3.237 -2.464,0 -4.771,1.21 -6.171,3.237 -4.065,5.886 -17.329,25.894 -17.329,36.263 0,10.336 6.71,19.128 16,22.266 v 66.234 h -32.5 c -30.603,0 -55.5000007,24.897 -55.5000007,55.5 v 50.14 c 0,7.002 3.5520005,13.439 9.5010007,17.22 2.036,1.293 4.238,2.176 6.499,2.652 v 145.988 c 0,17.369 14.131,31.5 31.5,31.5 h 416 c 17.369,0 31.5,-14.131 31.5,-31.5 v -47.998 c 0,-0.001 0,-0.003 0,-0.005 v -87.995 c 0,-0.001 0,-0.003 0,-0.005 v -9.985 c 2.261,-0.477 4.463,-1.359 6.499,-2.653 5.95,-3.781 9.501,-10.218 9.501,-17.22 v -50.139 c 0,-30.603 -24.897,-55.5 -55.5,-55.5 z m -40,-106.646 c 4.911,8.188 8.481,15.63 8.5,18.147 0,4.687 -3.813,8.5 -8.5,8.5 -4.687,0 -8.5,-3.813 -8.5,-8.5 0.019,-2.518 3.589,-9.959 8.5,-18.147 z m -64,0 c 4.911,8.188 8.481,15.63 8.5,18.147 0,4.687 -3.813,8.5 -8.5,8.5 -4.687,0 -8.5,-3.813 -8.5,-8.5 0.019,-2.518 3.589,-9.959 8.5,-18.147 z m -64,0 c 4.911,8.188 8.481,15.63 8.5,18.147 0,4.687 -3.813,8.5 -8.5,8.5 -4.687,0 -8.5,-3.813 -8.5,-8.5 0.019,-2.518 3.589,-9.959 8.5,-18.147 z m -64,0 c 4.911,8.188 8.481,15.63 8.5,18.147 0,4.687 -3.813,8.5 -8.5,8.5 -4.687,0 -8.5,-3.813 -8.5,-8.5 0.019,-2.518 3.589,-9.959 8.5,-18.147 z m -64,0 c 4.911,8.188 8.481,15.63 8.5,18.147 0,4.687 -3.813,8.5 -8.5,8.5 -4.687,0 -8.5,-3.813 -8.5,-8.5 0.019,-2.518 3.589,-9.959 8.5,-18.147 z m -64,0 c 4.911,8.188 8.481,15.63 8.5,18.147 0,4.687 -3.813,8.5 -8.5,8.5 -4.687,0 -8.5,-3.813 -8.5,-8.5 0.019,-2.518 3.589,-9.959 8.5,-18.147 z m -14.058,218.646 h -39.888 c 3.467,-5.492 5.446,-12.041 5.446,-18.898 v -12.244 c 0,-9.383 6.999,-17.384 15.602,-17.834 4.588,-0.237 8.938,1.36 12.253,4.505 3.317,3.148 5.145,7.4 5.145,11.971 v 22.642 c 0,3.432 0.509,6.743 1.442,9.858 z m 388.004,0 h -38.446 v -31.142 c 0,-9.383 6.999,-17.384 15.602,-17.834 4.59,-0.242 8.939,1.36 12.254,4.505 3.317,3.148 5.145,7.4 5.145,11.971 v 13.602 c -0.001,6.857 1.978,13.406 5.445,18.898 z m -2.84,120 -17,-17 h 18.787 l 11.607,11.606 v 5.394 z m -40,0 -17,-17 h 18.787 l 17,17 z m -40,0 -17,-17 h 18.787 l 17,17 z m -40,0 -17,-17 h 18.787 l 17,17 z m -40,0 -17,-17 h 18.787 l 17,17 z m -40,0 -17,-17 h 18.787 l 17,17 z m -40,0 -17,-17 h 18.787 l 17,17 z m -40,0 -17,-17 h 18.787 l 17,17 z m -40,0 -17,-17 h 18.787 l 17,17 z m -40,0 -17,-17 h 18.787 l 17,17 z m -40,0 -17,-17 h 18.787 l 17,17 z m 1.788,-105 17,17 h -18.788 l -17,-17 z m -23,17 h -14.394 v -14.394 z m -14.394,73.606 14.394,14.394 h -14.394 z m 435.606,-73.606 -17,-17 h 18.787 l 11.607,11.606 v 5.394 z m -35.681,-14.468 14.469,14.468 h -19.076 c 2.671,-4.354 4.271,-9.331 4.607,-14.468 z m -84.319,14.468 -16.195,-16.195 c 0.162,-0.268 0.33,-0.532 0.484,-0.805 h 17.499 l 17,17 z m 21.394,-32 h -33.017 c 0.003,-0.167 0.017,-0.333 0.017,-0.5 v -22.642 c 0,-9.383 6.999,-17.384 15.602,-17.834 4.587,-0.239 8.939,1.36 12.254,4.505 3.317,3.148 5.145,7.4 5.145,11.971 v 24.5 z m -48.548,26.667 c 0.127,-0.075 0.246,-0.159 0.372,-0.236 l 5.569,5.569 h -18.787 l -1.04,-1.04 c 4.831,-0.312 9.544,-1.739 13.886,-4.293 z m -52.846,5.333 -17,-17 h 18.787 l 17,17 z m -27.606,-0.5 v -5.894 l 6.394,6.394 h -6.406 c 0.002,-0.167 0.012,-0.332 0.012,-0.5 z m 0.031,-31.5 c 0.321,-8.862 6.787,-16.24 15.006,-16.938 4.713,-0.404 9.204,1.129 12.647,4.307 3.448,3.181 5.335,7.515 5.315,12.204 0,0.144 0.01,0.284 0.011,0.427 z m -4.125,47 h 164.508 c 0.026,0 0.052,0 0.079,0 h 80.507 v 41 h -449 v -41 h 149.094 c 5.419,9.543 15.669,16 27.406,16 11.737,0 21.987,-6.457 27.406,-16 z m -58.906,-25.606 -6.394,-6.394 h 6.394 z m 0,-21.394 h -34.188 c 0.774,-2.75 1.188,-5.608 1.188,-8.5 v -6.642 c 0,-9.383 6.999,-17.384 15.602,-17.834 4.59,-0.236 8.939,1.36 12.254,4.505 3.317,3.148 5.145,7.4 5.145,11.971 v 16.5 z m -43.039,14.55 c 0.793,0.286 1.645,0.45 2.537,0.45 h 12.896 l 17,17 h -18.787 l -15.694,-15.694 c 0.702,-0.553 1.385,-1.138 2.048,-1.756 z m -16.894,8.124 9.326,9.326 h -18.787 l -17.242,-17.242 c 0.314,-0.081 0.621,-0.177 0.917,-0.296 5.198,4.945 11.996,8.099 19.536,8.494 2.117,0.111 4.207,0.011 6.25,-0.282 z m 347.433,153.326 h -416 c -9.098,0 -16.5,-7.402 -16.5,-16.5 v -24.5 h 449 v 24.5 c 0,9.098 -7.402,16.5 -16.5,16.5 z m 32.5,-182.36 c 0,2.169 -1.315,3.778 -2.546,4.56 -0.764,0.485 -2.305,1.177 -4.036,0.365 l -0.303,-0.146 c -6.145,-3.012 -10.115,-9.81 -10.115,-17.317 v -13.602 c 0,-8.601 -3.579,-16.93 -9.819,-22.852 -6.329,-6.006 -14.627,-9.058 -23.364,-8.604 -16.72,0.875 -29.817,15.289 -29.817,32.814 v 38.594 c 0,0.016 -0.002,0.032 -0.002,0.048 0,0.016 0.002,0.032 0.002,0.048 v 7.952 c 0,4.571 -1.827,8.823 -5.145,11.971 -3.314,3.146 -7.674,4.742 -12.254,4.505 -8.603,-0.451 -15.602,-8.451 -15.602,-17.834 v -6.565 c 0,-0.026 0.004,-0.051 0.004,-0.077 0,-0.026 -0.003,-0.051 -0.003,-0.077 v -31.923 c 0,-8.601 -3.579,-16.93 -9.819,-22.852 -6.329,-6.006 -14.624,-9.063 -23.364,-8.604 -16.72,0.875 -29.817,15.289 -29.817,32.814 v 22.642 c 0,5.824 -3.124,11.279 -8.152,14.237 -5.335,3.139 -11.913,2.982 -18.043,-0.426 -4.288,-2.384 -6.832,-7.496 -6.805,-13.673 0.038,-8.82 -3.659,-17.311 -10.143,-23.293 -6.48,-5.979 -15.253,-8.978 -24.089,-8.229 -16.132,1.37 -28.768,15.676 -28.768,32.569 v 6.813 c 0,0.001 0,0.003 0,0.005 v 23.997 c 0,9.098 -7.402,16.5 -16.5,16.5 -9.098,0 -16.5,-7.402 -16.5,-16.5 v -48 c 0,-8.601 -3.579,-16.93 -9.819,-22.852 -5.915,-5.613 -13.549,-8.649 -21.655,-8.649 -0.567,0 -1.137,0.015 -1.709,0.045 -16.72,0.875 -29.817,15.289 -29.817,32.814 v 6.642 c 0,4.571 -1.827,8.823 -5.145,11.971 -3.314,3.146 -7.673,4.741 -12.254,4.505 -8.602,-0.45 -15.601,-8.451 -15.601,-17.834 v -22.642 c 0,-8.601 -3.579,-16.93 -9.819,-22.852 -6.329,-6.005 -14.624,-9.055 -23.363,-8.604 -16.72,0.875 -29.818,15.289 -29.818,32.814 v 12.244 c 0,7.507 -3.97,14.305 -10.108,17.315 l -0.305,0.146 c -1.74,0.813 -3.278,0.121 -4.04,-0.363 -1.231,-0.782 -2.546,-2.391 -2.546,-4.56 v -50.14 c 0,-22.332 18.168,-40.5 40.5,-40.5 h 400 c 22.332,0 40.5,18.168 40.5,40.5 v 50.14 z"
     id="path199" /><g
     style="fill:#ffffff"
     id="g201">
</g><g
     style="fill:#ffffff"
     id="g203">
</g><g
     style="fill:#ffffff"
     id="g205">
</g><g
     style="fill:#ffffff"
     id="g207">
</g><g
     style="fill:#ffffff"
     id="g209">
</g><g
     style="fill:#ffffff"
     id="g211">
</g><g
     style="fill:#ffffff"
     id="g213">
</g><g
     style="fill:#ffffff"
     id="g215">
</g><g
     style="fill:#ffffff"
     id="g217">
</g><g
     style="fill:#ffffff"
     id="g219">
</g><g
     style="fill:#ffffff"
     id="g221">
</g><g
     style="fill:#ffffff"
     id="g223">
</g><g
     style="fill:#ffffff"
     id="g225">
</g><g
     style="fill:#ffffff"
     id="g227">
</g><g
     style="fill:#ffffff"
     id="g229">
</g></g><text
   id="text264"
   y="142.98965"
   x="83.12088"
   style="font-style:normal;font-variant:normal;font-weight:bold;font-stretch:normal;font-size:37.33330000000000126px;line-height:0.95;font-family:'Big Caslon';-inkscape-font-specification:'Big Caslon Bold';text-align:center;text-anchor:middle;fill:#ffffff;fill-opacity:1;stroke:none;"
   xml:space="preserve"><tspan
     y="142.98965"
     x="83.12088"
     id="tspan262"
     sodipodi:role="line">CAKE</tspan><tspan
     id="tspan266"
     y="178.45628"
     x="83.12088"
     sodipodi:role="line">MAMA</tspan></text></svg>
